HIERARCHY
ROOT Hips
{
	OFFSET 0.000000 0.000000 0.000000
	CHANNELS 6 Xposition Yposition Zposition Xrotation Yrotation Zrotation
	JOINT LeftUpLeg_virtual
	{
		OFFSET 0.000000 0.000000 0.000000
		CHANNELS 3 Xrotation Yrotation Zrotation
		JOINT LeftUpLeg
		{
			OFFSET 15.427100 -6.655098 0.678600
			CHANNELS 3 Xrotation Yrotation Zrotation
			JOINT LeftLeg
			{
				OFFSET 4.081073 -39.591068 13.024000
				CHANNELS 3 Xrotation Yrotation Zrotation
				JOINT LeftFoot
				{
					OFFSET -4.081074 -37.707932 -15.979700
					CHANNELS 3 Xrotation Yrotation Zrotation
					JOINT LeftToeBase
					{
						OFFSET 5.346399 -15.068900 20.645000
						CHANNELS 3 Xrotation Yrotation Zrotation
						JOINT LeftToe_End
						{
							OFFSET 2.754700 0.931300 11.300900
							CHANNELS 3 Xrotation Yrotation Zrotation
							End Site
							{
								OFFSET 0 0 0
							}
						}
					}
				}
			}
		}
	}
	JOINT RightUpLeg_virtual
	{
		OFFSET 0.000000 0.000000 0.000000
		CHANNELS 3 Xrotation Yrotation Zrotation
		JOINT RightUpLeg
		{
			OFFSET -15.569500 -6.655098 0.678600
			CHANNELS 3 Xrotation Yrotation Zrotation
			JOINT RightLeg
			{
				OFFSET -4.081825 -39.591045 13.023800
				CHANNELS 3 Xrotation Yrotation Zrotation
				JOINT RightFoot
				{
					OFFSET 4.081824 -37.707954 -15.979600
					CHANNELS 3 Xrotation Yrotation Zrotation
					JOINT RightToeBase
					{
						OFFSET -5.346400 -15.068900 20.645000
						CHANNELS 3 Xrotation Yrotation Zrotation
						JOINT RightToe_End
						{
							OFFSET -2.754700 0.931300 11.300900
							CHANNELS 3 Xrotation Yrotation Zrotation
							End Site
							{
								OFFSET 0 0 0
							}
						}
					}
				}
			}
		}
	}
	JOINT Spine_virtual
	{
		OFFSET 0.000000 0.000000 0.000000
		CHANNELS 3 Xrotation Yrotation Zrotation
		JOINT Spine
		{
			OFFSET -0.279200 12.230698 -2.892100
			CHANNELS 3 Xrotation Yrotation Zrotation
			JOINT Spine1
			{
				OFFSET -0.232667 10.192268 -1.242267
				CHANNELS 3 Xrotation Yrotation Zrotation
				JOINT Spine1_split
				{
					OFFSET -0.232667 10.192268 -1.242267
					CHANNELS 3 Xrotation Yrotation Zrotation
					JOINT Spine2
					{
						OFFSET -0.232667 10.192268 -1.242267
						CHANNELS 3 Xrotation Yrotation Zrotation
						JOINT Neck_virtual
						{
							OFFSET 0.000000 0.000000 0.000000
							CHANNELS 3 Xrotation Yrotation Zrotation
							JOINT Neck
							{
								OFFSET -0.418800 17.814194 8.416900
								CHANNELS 3 Xrotation Yrotation Zrotation
								JOINT Head
								{
									OFFSET 0.000000 7.031097 3.806800
									CHANNELS 3 Xrotation Yrotation Zrotation
									JOINT HeadTop_End
									{
										OFFSET 0.000000 24.646606 12.978600
										CHANNELS 3 Xrotation Yrotation Zrotation
										End Site
										{
											OFFSET 0 0 0
										}
									}
								}
							}
						}
						JOINT LeftShoulder_virtual
						{
							OFFSET 0.000000 0.000000 0.000000
							CHANNELS 3 Xrotation Yrotation Zrotation
							JOINT LeftShoulder
							{
								OFFSET 8.476499 7.247704 -3.868750
								CHANNELS 3 Xrotation Yrotation Zrotation
								JOINT LeftShoulder_split
								{
									OFFSET 8.476499 7.247704 -3.868750
									CHANNELS 3 Xrotation Yrotation Zrotation
									JOINT LeftArm
									{
										OFFSET 9.308998 -2.777710 0.208600
										CHANNELS 3 Xrotation Yrotation Zrotation
										JOINT LeftForeArm
										{
											OFFSET 29.972298 0.000000 0.000000
											CHANNELS 3 Xrotation Yrotation Zrotation
											JOINT LeftHand
											{
												OFFSET 26.026505 0.000000 0.000000
												CHANNELS 3 Xrotation Yrotation Zrotation
												End Site
												{
													OFFSET 0 0 0
												}
											}
										}
									}
								}
							}
						}
						JOINT RightShoulder_virtual
						{
							OFFSET 0.000000 0.000000 0.000000
							CHANNELS 3 Xrotation Yrotation Zrotation
							JOINT RightShoulder
							{
								OFFSET -7.570500 7.247704 -3.868750
								CHANNELS 3 Xrotation Yrotation Zrotation
								JOINT RightShoulder_split
								{
									OFFSET -7.570500 7.247704 -3.868750
									CHANNELS 3 Xrotation Yrotation Zrotation
									JOINT RightArm
									{
										OFFSET -9.308998 -2.777710 0.208500
										CHANNELS 3 Xrotation Yrotation Zrotation
										JOINT RightForeArm
										{
											OFFSET -29.972300 0.000000 0.000000
											CHANNELS 3 Xrotation Yrotation Zrotation
											JOINT RightHand
											{
												OFFSET -26.026505 0.000000 0.000000
												CHANNELS 3 Xrotation Yrotation Zrotation
												End Site
												{
													OFFSET 0 0 0
												}
											}
										}
									}
								}
							}
						}
					}
				}
			}
		}
	}
}
MOTION
Frames: 9
Frame Time: 0.03333333
-5.348118 79.969482 80.395386 0.000000 0.000000 0.000000 25.416442 18.534371 -5.463812 -33.621019 2.878410 -10.260058 36.703411 3.501455 2.349102 -25.492257 -5.239665 12.553119 6.674500 -0.042134 -2.061318 0.000000 0.000000 0.000000 25.025876 19.493403 -5.473791 -58.741560 2.959973 -19.467081 55.796905 0.985276 4.978969 5.667803 -7.827603 17.002346 4.866096 7.126962 -11.839985 0.000000 0.000000 0.000000 24.091074 27.463252 -8.030852 6.816428 -4.038433 -0.848773 1.750890 0.725477 -1.492312 0.142390 -0.299698 0.115907 0.000000 0.000000 0.000000 3.016828 3.056771 -0.897312 -19.557309 12.602630 5.246570 -26.571319 -5.774183 1.750318 0.000000 0.000000 0.000000 0.135125 2.412000 -1.792125 0.945803 3.172312 -16.749234 0.030064 -0.550052 -1.117986 4.708233 3.692059 -46.235787 -2.665288 -61.799005 -4.522804 0.000000 0.000000 0.000000 3.385511 2.429856 -1.698026 -5.049539 3.050686 15.969932 -1.084852 -0.781185 2.651014 15.614765 -16.822505 47.089220 -3.641333 65.701646 6.073718 0.000000 0.000000 0.000000 
-5.031283 80.231476 88.246727 0.000000 0.000000 0.000000 25.779610 20.614377 -6.147371 -27.392344 1.726631 -9.252611 33.179071 3.721221 2.255867 -27.408166 -5.182136 11.907564 4.035972 -0.281420 -2.476201 0.000000 0.000000 0.000000 26.131148 21.398356 -6.528805 -61.070586 5.271293 -17.132490 51.151922 -3.469929 4.713389 4.492217 -9.453521 16.441587 6.122805 6.661527 -10.453990 0.000000 0.000000 0.000000 24.255795 29.731117 -8.417252 6.298911 -4.714819 -0.958454 2.252277 0.500143 -1.498378 0.178465 -0.169659 0.119055 0.000000 0.000000 0.000000 3.435363 2.944863 -0.917502 -19.612130 12.540069 5.971756 -26.678261 -5.125989 1.218844 0.000000 0.000000 0.000000 0.537445 2.285035 -1.810357 1.157218 3.518749 -17.117665 -0.333171 -1.342645 -1.331527 4.090386 2.607369 -46.245575 -2.158092 -60.602001 -3.873320 0.000000 0.000000 0.000000 3.722825 2.275826 -1.744963 -4.694805 3.044150 16.032211 -1.150998 -0.481310 2.446127 15.511848 -17.312286 47.656159 -2.764746 65.576756 5.037710 0.000000 0.000000 0.000000 
-4.558213 79.838699 95.913376 0.000000 0.000000 0.000000 25.529604 22.178830 -6.556541 -22.692117 0.936154 -7.109999 32.186925 1.455705 1.893761 -28.160487 -5.675867 8.526139 2.133336 -0.557380 -2.084426 0.000000 0.000000 0.000000 26.703296 23.501701 -7.579942 -62.319623 6.072302 -15.189729 46.513448 -7.247366 4.103108 2.346601 -10.593512 17.086608 5.083044 6.261405 -9.169057 0.000000 0.000000 0.000000 24.079574 31.772233 -8.558022 6.091288 -5.455453 -1.110492 2.729493 0.294671 -1.469275 0.178895 -0.022753 0.096159 0.000000 0.000000 0.000000 3.813043 2.830332 -0.928507 -19.920107 12.367424 6.860349 -27.222699 -4.538280 0.562521 0.000000 0.000000 0.000000 0.987873 2.173060 -1.789619 1.343159 3.623400 -17.431637 -0.372975 -1.966726 -1.464163 3.501281 1.916830 -46.307446 -1.049154 -59.993322 -2.740077 0.000000 0.000000 0.000000 4.084604 2.136679 -1.735008 -4.375919 2.709687 15.746342 -1.331934 -0.371260 2.270862 15.417532 -17.460381 48.226221 -1.890823 65.509683 4.080496 0.000000 0.000000 0.000000 
-4.108665 79.133087 103.137619 0.000000 0.000000 0.000000 25.251314 23.610265 -6.930690 -18.169411 0.805923 -5.018387 32.261224 -1.456367 1.168344 -30.097181 -6.313755 5.259037 2.275530 -1.075720 -1.295784 0.000000 0.000000 0.000000 26.622592 25.912100 -8.427858 -63.836341 6.505781 -14.015184 42.974355 -9.031133 3.264641 0.869199 -10.426570 19.739559 4.682018 5.748635 -8.274463 0.000000 0.000000 0.000000 23.893258 33.334400 -8.592244 6.079468 -6.229547 -1.168749 3.095752 0.095268 -1.381233 0.155713 0.165691 0.080760 0.000000 0.000000 0.000000 4.111693 2.693005 -0.881235 -20.376269 12.245568 7.554901 -28.127100 -3.931077 -0.258469 0.000000 0.000000 0.000000 1.437370 2.035073 -1.687592 1.487263 3.486834 -17.648975 -0.246898 -2.401117 -1.528254 3.102652 1.748280 -46.496892 0.647821 -59.615646 -1.130089 0.000000 0.000000 0.000000 4.452316 1.998711 -1.643537 -4.128879 1.986075 15.062003 -1.559550 -0.248106 2.244062 15.141336 -17.062699 48.756308 -1.075738 65.353183 3.212684 0.000000 0.000000 0.000000 
-3.669908 78.034615 109.880028 0.000000 0.000000 0.000000 25.191216 25.331047 -7.547768 -13.230584 1.509832 -3.466358 32.009852 -3.043807 -0.061910 -34.687355 -6.890057 4.412570 3.058972 -1.880084 -0.460253 0.000000 0.000000 0.000000 26.158627 27.847356 -8.968912 -65.733611 6.846239 -13.217957 40.529390 -9.090937 2.520994 -0.600004 -9.286920 22.833182 5.445683 5.286762 -8.112894 0.000000 0.000000 0.000000 23.668340 34.606455 -8.664623 6.139560 -6.999524 -1.033763 3.293326 -0.140842 -1.228181 0.135936 0.249124 0.031292 0.000000 0.000000 0.000000 4.336170 2.491225 -0.747787 -20.862799 12.299089 7.759109 -29.091767 -3.336021 -1.254258 0.000000 0.000000 0.000000 1.841683 1.832840 -1.498476 1.567239 3.123726 -17.796630 -0.019311 -2.533899 -1.554895 2.850603 2.162783 -46.894453 2.698155 -59.192236 0.733540 0.000000 0.000000 0.000000 4.785154 1.819138 -1.460053 -3.987706 0.904236 14.053791 -1.709730 -0.036575 2.258783 14.691050 -16.043261 49.319720 -0.402683 65.092113 2.468670 0.000000 0.000000 0.000000 
-3.263008 76.812668 116.413994 0.000000 0.000000 0.000000 25.497921 26.862874 -8.400634 -9.126189 2.690928 -1.888206 32.021112 -3.575378 -1.586756 -39.007494 -7.263894 4.283629 1.834841 -2.896340 -0.065703 0.000000 0.000000 0.000000 25.608770 29.236936 -9.456434 -66.941079 6.639350 -12.446865 38.852302 -8.253621 2.180002 -3.105793 -8.114690 24.409269 6.462557 5.007393 -8.608128 0.000000 0.000000 0.000000 23.554959 35.562869 -8.987382 6.211630 -7.715009 -0.652748 3.305233 -0.447673 -1.006734 0.143871 0.239530 -0.016301 0.000000 0.000000 0.000000 4.488062 2.192593 -0.524361 -21.282366 12.526818 7.325611 -29.784396 -2.608458 -2.373270 0.000000 0.000000 0.000000 2.172206 1.534868 -1.225028 1.580672 2.600743 -17.900497 0.285151 -2.256874 -1.539000 2.700925 3.062259 -47.543656 4.721347 -58.653887 2.531289 0.000000 0.000000 0.000000 5.083371 1.563183 -1.189452 -3.946286 -0.530667 12.850297 -1.932034 0.318534 2.329487 14.120189 -14.514241 49.852246 0.115560 64.797820 1.841119 0.000000 0.000000 0.000000 
-2.872283 75.642769 122.651024 0.000000 0.000000 0.000000 25.583046 28.120570 -9.435824 -6.871230 4.168035 0.198478 33.598568 -2.946394 -3.356326 -39.171080 -7.395897 4.374124 -2.220812 -4.047450 -1.078966 0.000000 0.000000 0.000000 25.000302 29.947050 -10.107177 -66.779436 5.451322 -11.244389 37.990233 -7.757477 2.312996 -6.554721 -8.109194 23.016561 7.583673 4.900429 -9.362141 0.000000 0.000000 0.000000 23.595457 36.233324 -9.704943 6.239878 -8.232915 -0.059866 3.213835 -0.799781 -0.721395 0.143881 0.215260 -0.029339 0.000000 0.000000 0.000000 4.586739 1.818044 -0.227682 -21.624116 12.859426 6.370626 -30.125164 -1.895224 -3.516878 0.000000 0.000000 0.000000 2.400150 1.141352 -0.865538 1.506528 1.967315 -17.950318 0.564504 -1.717956 -1.411340 2.736108 4.465072 -48.473231 6.300945 -58.071484 3.915408 0.000000 0.000000 0.000000 5.304279 1.227919 -0.834900 -3.997798 -2.111253 11.726889 -2.064246 0.820402 2.242414 13.515407 -12.657043 50.303739 0.451433 64.294435 1.336646 0.000000 0.000000 0.000000 
-2.380930 74.620529 128.644379 0.000000 0.000000 0.000000 24.862063 28.663521 -10.289842 -7.506940 5.189528 3.356684 37.731935 -2.161440 -4.834467 -32.537959 -7.080550 3.004552 -11.060946 -4.941473 -3.041673 0.000000 0.000000 0.000000 24.161284 30.126489 -10.777875 -65.210985 3.236620 -9.826769 38.586238 -7.833021 3.094172 -9.549665 -8.972757 19.910061 8.038952 4.895947 -9.937659 0.000000 0.000000 0.000000 23.487851 36.770419 -10.768546 6.355817 -8.453267 0.686758 3.066815 -1.151195 -0.396491 0.128410 0.149024 -0.044902 0.000000 0.000000 0.000000 4.662018 1.400271 0.090111 -21.928309 13.162906 5.169780 -30.099517 -1.343216 -4.549793 0.000000 0.000000 0.000000 2.518447 0.694487 -0.477749 1.356806 1.223271 -18.005675 0.893955 -0.976107 -1.164785 2.901596 6.211206 -49.595708 7.239049 -57.825228 4.704359 0.000000 0.000000 0.000000 5.408525 0.837811 -0.430787 -4.101200 -3.558162 10.933553 -2.264130 1.073957 2.140993 12.987600 -10.676010 50.544493 0.653966 63.232935 0.912934 0.000000 0.000000 0.000000 
-1.728951 73.824120 134.379944 0.000000 0.000000 0.000000 23.607430 28.475352 -10.920503 -10.251046 4.779827 6.460586 43.806197 -1.308203 -5.411982 -21.249501 -6.171665 0.533379 -23.080061 -5.153267 -5.565982 0.000000 0.000000 0.000000 22.742689 30.340930 -11.318787 -63.441604 1.082670 -9.017401 41.776774 -6.466817 4.526972 -9.707546 -9.047183 17.980622 9.205800 4.725028 -9.649275 0.000000 0.000000 0.000000 23.066754 37.041311 -11.922527 6.690159 -8.264017 1.493505 2.912549 -1.473228 -0.087469 0.123499 0.123597 -0.056894 0.000000 0.000000 0.000000 4.745616 1.021971 0.381887 -22.228955 13.390349 4.050958 -29.890141 -0.966458 -5.461690 0.000000 0.000000 0.000000 2.563544 0.283995 -0.123874 1.159072 0.404454 -18.088156 1.038662 -0.251243 -0.928725 3.374144 8.071836 -50.760767 7.451845 -58.149430 4.864016 0.000000 0.000000 0.000000 5.400315 0.465436 -0.053282 -4.207277 -4.624322 10.629100 -2.509871 0.918256 1.936576 12.432087 -8.756868 50.457794 0.687169 61.436097 0.614236 0.000000 0.000000 0.000000 
